<?xml version='1.0' encoding='utf-8'?>
<svg xmlns="http://www.w3.org/2000/svg" viewBox="0 0 1323 1323"><defs><style>.cls-1{fill:#e6e6e6;}.cls-2{fill:#b2cbe2;}.cls-3{fill:#f3c6a4;}.cls-4{fill:#33241f;}.cls-5{fill:#c7a388;}.cls-6{fill:#fefefe;}.cls-7{fill:#96aabc;}.cls-8{fill:#95a9bc;}.cls-9{fill:none;stroke:#333;stroke-linecap:round;stroke-miterlimit:10;stroke-width:45px;}</style></defs><title>Asset 25</title><g id="Layer_2" data-name="Layer 2"><g id="Layer_1-2" data-name="Layer 1"><path class="cls-1" d="M1323,661.5a661.85,661.85,0,0,1-25.16,181.32c-46.37,163.07-153.73,300.45-295.86,385.93a657.23,657.23,0,0,1-284.77,91.93Q689.67,1323,661.5,1323a660.37,660.37,0,0,1-218.84-37.06q-8.85-3.11-17.59-6.45A662.51,662.51,0,0,1,13.24,529.2C74.52,227.25,341.47,0,661.5,0,1026.84,0,1323,296.16,1323,661.5Z"/><path class="cls-2" d="M1271.33,835.85c-19.45-3.33-38.32-7.75-56.91-14.64-40.19-14.88-78.81-33.23-117.93-50.56-18.75-8.32-32-19.4-40.42-37.76a485.8,485.8,0,0,0-29.79-56.06c-4.41-7-8.11-14.43-17.4-15.81-7.11,6.7-4.7,15.73-3.57,23.05,5.37,34.42-11.76,61.73-26.16,90-3.66,7.2-10.35,10.58-17.3,13.32-16.22,6.39-26.88,17.63-31.06,34.83,0,11,.84,22-.15,32.85-2.43,26.53,3.8,51.82,11.92,76.29C965,998.9,979.18,1068.29,992.21,1138c4.91,26.18,6.2,52.71,8.71,79.17q.55,5.77,1.06,11.55c142.13-85.48,249.49-222.86,295.86-385.93A153.37,153.37,0,0,0,1271.33,835.85ZM1035,896.23c-6.67,6.95-12.18-4.47-16.41-9.15-18.07-20-38.93-38-50-63.57-3.66-8.46-10.6-9.46-18.95-10.77,1.81-7.09,5.83-9.91,9.56-12.63,6.23-4.56,11.39-2.58,15.19,3.78a8.5,8.5,0,0,1,.78,1.87c9.31,29.57,28.38,52.22,50.31,73C1030.52,883.49,1041.14,889.84,1035,896.23Z"/><path class="cls-2" d="M783.75,823.05c2.75-22.43-2.51-39.95-21.52-55.41-23.3-18.94-31.53-46.88-31.94-77-.11-7.23,2.91-15.15-3-21.65-6,2.6-9.09,7.91-12.59,13-10.49,15.21-20.58,30.68-27.73,47.79C682.66,740,676,746.24,665,749c-13.12,3.26-25.9,8-38.71,12.42-37.94,13.11-74.06,30.68-111,46.26-23.6,10-47,19.93-68.28,35.59-46.51,34.21-85.83,73.59-106.61,128.93-14.88,39.63-28.32,79.75-38.77,120.82-6.39,25.1-15.36,49.91-15.2,76.08a142,142,0,0,1-4,34.58,659.49,659.49,0,0,0,142.67,75.83c.84-5.27,1.69-10.53,2.51-15.81q.45-2.88.89-5.78c1-7,2-13.93,2.78-20.93.1-.89.19-1.77.29-2.65,0-.25,0-.51.08-.77.09-.84.17-1.7.25-2.55.3-3.09.54-6.17.74-9.27.07-.9.12-1.81.17-2.71s.09-1.63.13-2.45c.06-1.29.11-2.57.15-3.87,0-.91.06-1.82.07-2.72.42-20-3-39.41-6.44-58.86-2-11.41-3.71-22.55,2.56-36.81,10.5,20.48,6.55,40.38,11.38,58.83,4.11,15.71,5.45,32.16,7.83,48.3,2.86,19.3-2.23,38.28-4.76,56.93-.34,2.52-.68,5.05-1,7.57A660.37,660.37,0,0,0,661.5,1323q28.15,0,55.71-2.32c.62-28.77.28-57.55,2.18-86.21,2.47-37.33,10.44-74.19,17-111.12,12-67.84,28.52-134.68,42.56-202.06a40.79,40.79,0,0,0,1-10.19c-1.29-26.08,4.15-51.78,4.16-77.79C783.93,829.89,783.34,826.41,783.75,823.05ZM676.89,875.91c-.81,1.69-1.71,1.61-2.24-.19-.12-.42.35-1,.55-1.55.46,0,1.16-.09,1.35.16A1.91,1.91,0,0,1,676.89,875.91Zm80-91.15c-21.41,23.75-33.92,54.53-58.73,75.53-1.26,1.07-3.59.84-6.51,1.44-.67-6.24,2.1-8.49,4.39-10.92,10.39-11,18.9-23,23.54-37.8,4.71-15.06,17.22-24.24,28.41-34.15,2.53-2.24,6.5-2.93,9.06.41C757.92,780.44,757.85,783.68,756.88,784.76Z"/><path class="cls-3" d="M1070.58,397.58c12.57,1.67,14.23,12.06,14.94,21.32,2.81,36.89-6,71.85-19.13,105.93-2,5.23-5.25,10.63-10.5,12-12.74,3.24-15.61,13.25-19,23.81-5.71,17.86-17.26,32.39-28.11,47.25-26.55,19.86-53,39.4-83.79,53-39.43,17.41-77.93,17.5-115.07-3.35a226.45,226.45,0,0,1-51.24-39.92c-9-9.28-18.3-18.2-31.23-21.81-1.33-3.08-1.92-6.9-4.11-9.12-10.63-10.79-14.74-24.38-16.93-38.72-2.06-13.46-3.17-26.18-19.38-31.91-8.82-3.11-13.36-13.15-16.74-22.36-11.39-31-9.15-63.26-7.47-95.3.34-6.54,2.83-13.52,9.81-17,4.62,7.59,8.91,15.41,14,22.69,2.86,4.11,4.51,11.48,11.44,9.49,5.58-1.61,4.12-7.89,4.62-12.48,1-8.85,3.11-17.79,2.5-26.54-1.73-24.66,6.63-45.11,21-64.7,11.89-16.23,19.15-34.32,10.36-55.73-3.48-8.49-3.71-19,2.82-27.53,12.46-16.18,28.3-29.37,48-32.83,25.94-4.57,52.68-7.52,78.78,1.25a62,62,0,0,0,38,.88c52.93-15.23,109.89,22.27,117.55,76.67a321,321,0,0,1,3.06,40.94c.07,6.14-.87,12.9,2.54,18.13,15.15,23.27,13.87,49.55,14.44,75.54.15,6.86.11,13.77,2.63,20.27.67,1.73,2,3.75,3.61,4.46,3,1.37,5.19-1,6.49-3.39C1059.93,418.23,1065.22,407.89,1070.58,397.58Z"/><path class="cls-4" d="M1070.58,397.58c-5.36,10.31-10.65,20.65-16.13,30.89-1.3,2.41-3.44,4.76-6.49,3.39-1.57-.71-2.94-2.73-3.61-4.46-2.52-6.5-2.48-13.41-2.63-20.27-.57-26,.71-52.27-14.44-75.54-3.41-5.23-2.47-12-2.54-18.13a321,321,0,0,0-3.06-40.94c-7.66-54.4-64.62-91.9-117.55-76.67a62,62,0,0,1-38-.88c-26.1-8.77-52.84-5.82-78.78-1.25-19.67,3.46-35.51,16.65-48,32.83-6.53,8.5-6.3,19-2.82,27.53,8.79,21.41,1.53,39.5-10.36,55.73-14.35,19.59-22.71,40-21,64.7.61,8.75-1.54,17.69-2.5,26.54-.5,4.59,1,10.87-4.62,12.48-6.93,2-8.58-5.38-11.44-9.49-5.07-7.28-9.36-15.1-14-22.69-.21-46.83,6.61-92.92,17.72-138.09C710.4,161.74,782.56,107.8,866,105c71.36-2.42,124.14,27.65,164.72,84.08,18,25,25,54.17,30.93,83.86C1069.91,314.14,1070.73,355.8,1070.58,397.58Z"/><path class="cls-3" d="M784.05,833.31c-.12-3.42-.71-6.9-.3-10.25,2.75-22.44-2.51-40-21.53-55.42-23.29-18.94-31.52-46.89-31.94-77-.1-7.23,2.92-15.15-3-21.65.64-9.39-1.08-18.9,1.52-28.17,8.64,4.71,12.66,13.61,18.49,20.85,25.22,31.31,54.5,56.66,95.39,64,20.19,3.64,40.83,4.29,59.13-6.64,36.45-21.78,74.13-41.76,106.51-69.88q.29,5.91.58,11.83c-7.11,6.7-4.71,15.73-3.57,23.06,5.37,34.41-11.77,61.72-26.16,90-3.66,7.2-10.35,10.58-17.3,13.31-16.22,6.4-26.89,17.63-31.06,34.84-9.44.16-18.75.52-28.12,2.63C863.59,833.68,824,836.09,784.05,833.31Z"/><path class="cls-5" d="M1008.3,649.19c-32.38,28.12-70.06,48.1-106.51,69.88-18.3,10.93-38.94,10.28-59.13,6.64-40.89-7.37-70.17-32.72-95.39-64-5.83-7.24-9.85-16.14-18.49-20.85-2.48-15-2-30-1.32-45.07,12.93,3.61,22.22,12.53,31.23,21.81a226.45,226.45,0,0,0,51.24,39.92c37.14,20.85,75.64,20.76,115.07,3.35,30.74-13.58,57.24-33.12,83.79-53C1011.41,621.67,1008.4,635.41,1008.3,649.19Z"/><path class="cls-6" d="M1002,1228.75a657.23,657.23,0,0,1-284.77,91.93c.62-28.77.28-57.55,2.18-86.21,2.47-37.33,10.44-74.19,17-111.12,12-67.84,28.52-134.68,42.56-202.06a40.79,40.79,0,0,0,1-10.19c-1.29-26.08,4.15-51.78,4.16-77.79,39.93,2.78,79.54.36,118.61-8.43,9.38-2.11,18.69-2.47,28.13-2.63,0,11,.84,22-.15,32.85-2.43,26.53,3.8,51.82,11.92,76.29C965,998.9,979.18,1068.29,992.21,1138c4.91,26.18,6.2,52.71,8.71,79.17Q1001.47,1223,1002,1228.75Z"/><path class="cls-7" d="M949.7,812.74c1.81-7.08,5.83-9.91,9.56-12.63,6.23-4.56,11.38-2.58,15.19,3.78a8.5,8.5,0,0,1,.78,1.87c9.31,29.57,28.38,52.21,50.32,73,5,4.72,15.59,11.07,9.47,17.46-6.67,7-12.18-4.47-16.41-9.15-18.06-20-38.93-38-50-63.57C965,815.05,958.05,814.05,949.7,812.74Z"/><path class="cls-8" d="M443.7,1278.37c-.34,2.52-.68,5.05-1,7.57q-8.85-3.11-17.59-6.45c.84-5.27,1.69-10.53,2.51-15.81q.45-2.88.89-5.78c1-7,2-13.93,2.78-20.93.1-.89.19-1.77.29-2.65,0-.25,0-.51.08-.77.09-.84.17-1.7.25-2.55.3-3.09.54-6.17.74-9.27.07-.9.12-1.81.17-2.71s.09-1.63.13-2.45c.06-1.29.11-2.57.15-3.87,0-.91.06-1.82.07-2.72.42-20-3-39.41-6.44-58.86-2-11.41-3.71-22.55,2.56-36.81,10.5,20.48,6.55,40.38,11.38,58.83,4.11,15.71,5.45,32.16,7.83,48.3C451.32,1240.74,446.23,1259.72,443.7,1278.37Z"/><path class="cls-7" d="M691.63,861.73c-.66-6.24,2.11-8.49,4.41-10.92,10.38-11,18.89-23,23.53-37.8,4.71-15.06,17.22-24.24,28.4-34.15,2.53-2.24,6.51-2.93,9.06.41.89,1.17.82,4.41-.15,5.49-21.41,23.75-33.92,54.53-58.73,75.54C696.89,861.36,694.56,861.13,691.63,861.73Z"/><path class="cls-7" d="M675.2,874.17c.47,0,1.16-.09,1.35.16a1.87,1.87,0,0,1,.34,1.58c-.81,1.69-1.71,1.61-2.24-.19C674.53,875.29,675,874.69,675.2,874.17Z"/><path class="cls-9" d="M274.13,651.32c98.61-97.16,97.31-258.08-2.89-359.77"/><path class="cls-9" d="M179.81,563c51.33-50.59,52.33-132.67,2.23-183.51"/><path class="cls-9" d="M359,737.44C503.34,595.2,501.11,359.29,354,210"/></g></g></svg>