<?xml version="1.0" encoding="utf-8"?>
<svg xmlns="http://www.w3.org/2000/svg" xmlns:xlink="http://www.w3.org/1999/xlink" version= "1.1" width="1920px" height="1300px" viewBox="-600 63 1920 1300">
<g id="layer1">
<g style="fill:rgb(0,178,230); fill-opacity:1.0; stroke-linejoin: miter">
<path d="M-600.001,61.542072C-600.3874,61.542072,-600.75793,61.695568,-601.0312,61.968796C-601.30444,62.242023,-601.4579,62.6126,-601.4579,62.999L-601.4569,1363.0C-601.4569,1363.8047,-600.8046,1364.4569,-600.0,1364.4569L1320.001,1364.4579C1320.3873,1364.4579,1320.7579,1364.3043,1321.0311,1364.0311C1321.3043,1363.7579,1321.4579,1363.3873,1321.4579,1363.001L1321.4569,63.0C1321.4569,62.195362,1320.8047,61.54307,1320.0,61.54307L-600.001,61.542072 Z"/>
</g>
<g style="fill:rgb(58,76,81); fill-opacity:0.99607843; stroke-linejoin: miter">
</g>
<g style="fill:rgb(255,255,255); fill-opacity:1.0; stroke-linejoin: miter">
<path d="M224.38861,369.17456L224.38867,369.1751L224.38873,369.17578L224.38861,369.17456"/>
</g>
<g style="fill:rgb(0,0,0); fill-opacity:1.0; stroke-linejoin: miter">
<path d="M291.8679,1147.8951L-155.20288,1147.8976L-155.20328,423.22925L291.8683,423.23108L291.8679,1147.8951 Z M33.54335,1221.4783C33.54335,1201.5543,49.54373,1185.3931,69.28471,1185.3931C89.032,1185.3922,105.025635,1201.5543,105.025635,1221.4783C105.02608,1241.3945,89.032,1257.5844,69.28471,1257.5852C49.54416,1257.5573,33.54335,1241.3945,33.54335,1221.4783 M321.8644,1254.2295L321.92545,1254.2313L321.92535,385.77264L321.92535,385.76587L321.92535,385.5907L321.9119,385.5927C321.81717,365.7622,305.72873,349.71368,285.86642,349.71368C285.7245,349.71368,285.6099,349.72748,285.4814,349.72748L285.4814,349.71368L204.48627,349.7157L-31.809494,349.71454L-149.20105,349.71564C-169.0364,349.72742,-185.1113,365.7754,-185.21959,385.59058L-185.22589,385.59265L-185.2255,1254.2219L-185.17203,1254.2236C-185.18504,1254.5994,-185.2255,1254.971,-185.2255,1255.3634C-185.2255,1274.7935,-168.89444,1290.5505,-148.74188,1290.5505C-148.44492,1290.5505,-148.15427,1290.5103,-147.8573,1290.5034L-147.8573,1290.5505L286.35892,1290.5529L286.35892,1290.5505C305.9651,1290.5505,321.9183,1274.8003,321.9183,1255.3634C321.92545,1254.9785,321.8779,1254.6002,321.8644,1254.2295"/>
</g>
<g style="fill:rgb(113,207,235); fill-opacity:1.0; stroke-linejoin: miter">
<path d="M291.8683,423.2293L291.8679,1147.8951L-155.20288,1147.8976L-155.20328,423.22925 Z"/>
</g>
<g style="fill:rgb(60,70,79); fill-opacity:1.0; stroke-linejoin: miter">
<path d="M69.28471,1185.3931C89.032,1185.3922,105.025635,1201.5543,105.025635,1221.4783C105.02608,1241.3945,89.032,1257.5844,69.28471,1257.5852C49.54416,1257.5573,33.54335,1241.3945,33.54335,1221.4783C33.54335,1201.5543,49.54373,1185.3931,69.28471,1185.3931 Z"/>
</g>
<g style="fill:rgb(255,255,255); fill-opacity:1.0; stroke-linejoin: miter">
<path d="M-41.97403,418.67322L-41.97403,418.67438L-41.97403,418.67407C-41.836693,421.0855,-43.680893,423.15186,-46.09247,423.28906C-48.503643,423.42688,-50.57025,421.58337,-50.70757,419.1714L-50.70757,419.17224L-50.70757,419.17108C-50.844887,416.75934,-49.001553,414.693,-46.589954,414.55548C-44.17838,414.41827,-42.11177,416.26147,-41.97403,418.67322 Z"/>
</g>
<g style="fill:rgb(0,0,0); fill-opacity:0.54901963; stroke-linejoin: miter">
<path d="M1182.7902,1282.8036L1175.4003,1284.6704Q1122.8619,1290.3119,867.9461,1293.6943Q611.2663,1297.0741,263.43018,1296.4353Q-68.53403,1295.5425,-267.56488,1291.2102Q-331.33658,1289.8098,-372.62164,1288.1586L-407.32062,1286.4608Q-435.91574,1284.7085,-436.23724,1282.8036Q-427.55658,1276.9576,-199.13618,1273.0757Q29.284271,1269.1938,373.27637,1269.0463Q717.2686,1269.1938,945.689,1273.0757Q1174.1095,1276.9576,1182.7902,1282.8036"/>
</g>
<g style="fill:rgb(255,0,0); fill-opacity:0.99607843; stroke-linejoin: miter">
<path d="M876.87103,767.35803L876.62854,773.24133Q874.9048,791.0206,866.5416,801.68054Q858.1205,812.33167,846.70886,810.3186Q835.8178,807.50464,829.28827,793.8517Q827.19617,789.4387,825.84174,784.2346L824.7033,778.88416Q823.76495,773.3615,823.7545,767.3582Q824.03937,748.93463,831.5332,736.70087Q839.02716,724.46704,850.3126,724.002Q861.5982,724.46704,869.09235,736.70087Q876.5862,748.93445,876.87103,767.35803"/>
</g>
<g style="fill:rgb(83,93,102); fill-opacity:1.0; stroke-linejoin: miter">
<path d="M842.5307,713.7269L842.5307,640.4033L825.29865,640.4042L825.2985,655.4819C774.7583,704.7373,724.8756,713.39514,696.05676,713.4124L696.05676,822.67664C724.7619,821.93567,774.72314,829.45593,825.2985,878.81226L825.2985,893.89026L842.5305,893.89136L842.5305,820.5659C868.37933,816.5171,888.1099,794.11597,888.1099,767.14716C888.11096,740.17737,868.37964,717.7764,842.5307,713.7269 Z M842.5305,803.0752L842.5305,731.13293C858.81506,735.0948,870.8779,749.7431,870.8778,767.1473C870.8778,784.55176,858.8156,799.1987,842.5305,803.0752 Z"/>
</g>
<g style="fill:rgb(34,43,50); fill-opacity:1.0; stroke-linejoin: miter">
<path d="M666.0518,708.0085L689.40393,708.0087L712.756,708.00903Q712.756,767.04346,712.756,826.07776Q689.4039,826.0779,666.0517,826.078Q666.0517,767.0434,666.0518,708.0085"/>
</g>
<g style="fill:rgb(0,0,0); fill-opacity:1.0; stroke-linejoin: miter">
<path d="M609.76996,915.2323L637.29486,915.23267L664.8197,915.2329Q664.81964,947.375,664.8197,979.5177Q637.29486,979.51794,609.76996,979.51794Q609.76996,947.375,609.76996,915.2323"/>
</g>
<g style="fill:rgb(34,43,50); fill-opacity:1.0; stroke-linejoin: miter">
<path d="M678.6523,885.2739C662.19574,858.3071,659.5249,840.3843,660.4726,826.6835L678.82477,826.68396L678.82477,706.0579L601.27924,706.059C568.0214,706.0583,540.96686,733.1135,540.9668,766.3707C540.9668,796.5276,563.1961,821.51416,592.14624,825.9099L618.77014,914.6532C621.35516,923.3578,627.2137,930.42017,635.2268,934.6422C640.1378,937.31396,645.56586,938.692,651.0806,938.69226C654.355,938.69226,657.71533,938.17444,660.989,937.2283C670.89746,934.1271,678.3933,927.23425,682.09845,917.6698C685.97577,907.3307,684.7691,895.18335,678.6523,885.2739 Z"/>
</g>
<g style="fill:rgb(255,177,133); fill-opacity:1.0; stroke-linejoin: miter">
<path d="M675.07117,862.0342L676.3665,863.2366Q686.91583,872.82434,687.0255,878.5027Q687.6618,884.8031,682.9975,894.86Q686.6528,910.6107,684.1648,919.55286Q682.3056,925.2041,677.78644,929.5071Q675.05304,932.6361,663.84424,940.2479Q658.5961,948.4508,655.2921,951.0532Q651.44116,954.1769,648.8195,955.0593Q634.79645,960.0807,610.76917,951.4553Q586.0046,943.3544,534.4056,919.6466L535.7522,842.8308L573.5984,842.88574L590.1353,825.0342Q618.74536,832.61597,628.18195,832.05994Q633.06,831.9238,636.8771,830.8463Q653.86084,824.76953,653.2895,825.4336Q660.4089,824.1752,663.36975,824.81226Q671.67175,825.47705,674.60535,833.6898Q677.1154,839.2999,675.07117,862.0342"/>
</g>
<g style="fill:rgb(255,190,133); fill-opacity:0.99607843; stroke-linejoin: miter">
<path d="M688.7735,806.68774L688.7735,806.6885L688.77344,806.68884L688.7735,806.68774"/>
</g>
<g style="fill:rgb(255,255,255); fill-opacity:1.0; stroke-linejoin: miter">
<path d="M505.6557,842.9193L531.4985,842.9193L557.34125,842.9197Q557.3414,892.23157,557.3413,941.5431Q531.49854,941.5436,505.65576,941.54407Q505.65576,892.2317,505.6557,842.9193"/>
</g>
<g style="fill:rgb(0,0,0); fill-opacity:1.0; stroke-linejoin: miter">
<path d="M305.7756,831.7689L416.3158,831.7688L526.85614,831.76917Q526.85626,897.43054,526.85626,963.0913Q416.31592,963.0913,305.77576,963.0917Q305.77567,897.43054,305.7756,831.7689"/>
</g>
<g style="fill:rgb(0,0,0); fill-opacity:1.0; stroke-linejoin: miter">
<path d="M828.7458,640.2354L832.94,640.2357L837.1345,640.23596Q837.1344,767.2133,837.1344,894.19104Q832.9399,894.1914,828.7455,894.19165Q828.7455,767.2133,828.7458,640.2354"/>
</g>
<g style="fill:rgb(0,0,0); fill-opacity:1.0; stroke-linejoin: miter">
<path d="M840.87463,713.609L841.80914,820.5575Q853.15906,819.9912,862.8232,815.1626Q873.2948,809.4978,878.85034,802.9177Q884.9695,796.1378,888.42706,787.64246Q890.1555,783.39453,891.21857,778.7179L892.1153,773.9341L892.5408,766.6567Q892.197,756.5366,888.9925,747.953Q887.3902,743.66125,885.073,739.75336L882.5766,735.94196Q879.9015,732.22626,876.5112,728.8946Q868.1953,721.5756,866.1325,720.88806Q862.42303,718.7042,858.38074,717.16797Q850.2976,714.0945,840.87463,713.609 Z"/>
</g>
<g style="fill:rgb(0,0,0); fill-opacity:1.0; stroke-linejoin: miter">
<path d="M598.29376,704.84186L597.2177,827.9684Q584.1509,827.3164,573.0251,821.75745Q560.9691,815.2361,554.5732,807.6604Q547.52844,799.8546,543.5483,790.0741Q541.5585,785.18384,540.3345,779.7997L539.3021,774.2926L538.812,765.9142Q539.2078,754.26294,542.8973,744.3812Q544.7419,739.44006,547.4099,734.9412L550.28375,730.55273Q553.3634,726.27527,557.2665,722.4398Q566.8402,714.0136,569.2151,713.2221Q573.48566,710.7081,578.1396,708.93915Q587.44543,705.40063,598.29376,704.84186 Z"/>
</g>
<g style="fill:rgb(255,0,25); fill-opacity:0.99607843; stroke-linejoin: miter">
<path d="M-208.67259,345.18744L64.492035,345.1881L337.65665,345.18872Q337.65665,472.67133,337.65665,600.1538L-208.67256,600.1553Q-208.67258,472.67133,-208.67259,345.18744"/>
</g>
<g style="fill:rgb(255,255,255); fill-opacity:1.0; stroke-linejoin: miter">
<path d="M-153.71172,409.37994L-217.0734,409.3825L-217.0734,595.50586C-217.0734,597.6921,-215.29927,599.4659,-213.11322,599.4659L-157.67163,599.4688C-155.48575,599.4659,-153.7117,597.6921,-153.7117,595.50586L-153.71172,409.37994 Z"/>
</g>
<g style="fill:rgb(255,255,255); fill-opacity:1.0; stroke-linejoin: miter">
<path d="M-26.98825,409.38055L-90.349945,409.3825L-90.34986,595.50586C-90.34986,597.69183,-88.57567,599.4659,-86.389725,599.4659L-30.94823,599.4691C-28.762379,599.4662,-26.988182,597.6921,-26.988182,595.5062L-26.98825,409.38055 Z"/>
</g>
<g style="fill:rgb(255,255,255); fill-opacity:1.0; stroke-linejoin: miter">
<path d="M99.73505,409.38055L36.37336,409.38287L36.37358,595.5062C36.37358,597.6921,38.14769,599.4662,40.333633,599.4662L95.775055,599.4691C97.96124,599.4662,99.73535,597.6921,99.73535,595.5062L99.73505,409.38055 Z"/>
</g>
<g style="fill:rgb(255,255,255); fill-opacity:1.0; stroke-linejoin: miter">
<path d="M226.45877,409.37994L163.09697,409.38287L163.09703,595.5062C163.09703,597.6921,164.87129,599.4662,167.05707,599.4662L222.49875,599.4691C224.68481,599.4662,226.4588,597.6921,226.4588,595.5062L226.45877,409.37994 Z"/>
</g>
<g style="fill:rgb(255,255,255); fill-opacity:1.0; stroke-linejoin: miter">
<path d="M353.18213,409.37994L289.8206,409.38287L289.82062,595.5062C289.82062,597.6921,291.59482,599.4662,293.78067,599.4662L349.2221,599.4688C351.4081,599.4662,353.18216,597.69183,353.18216,595.50586L353.18213,409.37994 Z"/>
</g>
<g style="fill:rgb(34,43,50); fill-opacity:0.99607843; stroke-linejoin: miter">
<path d="M471.3451,638.0781L471.3451,638.07825L471.3451,638.079L471.3451,638.07825L471.3451,638.0781L471.3451,638.07825L471.3451,638.079Q471.3451,638.07825,471.3451,638.0781"/>
</g>
<g style="fill:rgb(34,43,50); fill-opacity:0.99607843; stroke-linejoin: miter">
<path d="M471.3451,638.0781L471.3451,638.07825L471.3451,638.079L471.3451,638.07825L471.3451,638.0781L471.3451,638.07825L471.3451,638.079Q471.3451,638.07825,471.3451,638.0781"/>
</g>
<g style="fill:rgb(34,43,50); fill-opacity:0.99607843; stroke-linejoin: miter">
<path d="M471.3451,638.0781L471.3451,638.07825L471.3451,638.079L471.3451,638.07825L471.3451,638.0781L471.3451,638.07825L471.3451,638.079Q471.3451,638.07825,471.3451,638.0781"/>
</g>
<g style="fill:rgb(34,43,50); fill-opacity:0.99607843; stroke-linejoin: miter">
<path d="M471.3451,638.0781L471.3451,638.07825L471.3451,638.079L471.3451,638.07825L471.3451,638.0781L471.3451,638.07825L471.3451,638.079Q471.3451,638.07825,471.3451,638.0781"/>
</g>
<g style="fill:rgb(251,193,168); fill-opacity:1.0; stroke-linejoin: miter">
<path d="M402.18463,655.6918C400.6997,651.48535,402.32294,648.6992,404.24243,646.9385C401.92654,646.01807,400.00208,644.13904,399.1089,641.6085C397.4678,636.9596,399.91476,631.84375,404.56293,630.20215L428.78406,621.6534L425.5251,616.3359C421.17743,609.2448,419.1797,600.154,418.66937,597.5372C417.46347,591.33954,420.34656,582.9152,426.01013,580.9161L426.4135,580.7745C429.10382,579.82404,434.16034,579.7624,437.78552,590.0319C446.6067,615.02045,457.98764,611.3417,458.5158,611.15564L458.51636,611.157L460.20154,610.5602L459.01102,607.1885L485.9879,597.66626L508.60413,661.73267L481.62848,671.25854L480.43744,667.8845L433.22998,684.55304C428.58044,686.1916,423.46436,683.74457,421.8233,679.0965C421.13086,677.1341,421.1668,675.0883,421.78796,673.25555C417.62726,673.8969,413.45587,671.50696,412.00385,667.3943C411.31067,665.43164,411.3471,663.3867,411.96887,661.55383C407.80704,662.1941,403.63626,659.8042,402.18463,655.6918 Z M504.04205,659.5515L483.80597,602.2269L463.57385,609.3716L483.8094,666.69434L504.0426,659.553 Z"/>
</g>
<g style="fill:rgb(0,0,0); fill-opacity:1.0; stroke-linejoin: miter">
<path d="M488.00623,595.66406L470.11334,601.9812L452.22034,608.2974Q463.83698,641.2051,475.45374,674.1124Q493.34656,667.79663,511.23987,661.48Q499.62317,628.57214,488.00623,595.66406"/>
</g>
<g style="fill:rgb(255,0,0); fill-opacity:1.0; stroke-linejoin: miter">
<path d="M664.8578,462.65207C664.8384,462.66476,664.81934,462.67758,664.79987,462.69016C658.944,466.56906,655.1054,472.2418,653.7329,478.99728C653.1059,482.15146,653.004,484.22202,653.25055,488.93845C653.2526,488.96432,653.24445,488.98264,653.2259,488.9951C653.1021,489.07663,652.51733,488.85764,651.4851,488.3585C646.28723,485.793,640.2546,484.7476,635.1799,485.5308C631.05896,486.1569,627.177,487.67142,623.5587,490.05716C622.62305,490.67422,621.7051,491.34915,620.8051,492.08206C615.30383,496.5313,611.9668,501.8493,610.6649,508.19C609.5249,513.80206,610.1466,519.39764,612.5982,525.39325C613.7081,528.1114,616.7487,532.77216,618.81824,534.9235C625.61005,541.9808,635.213,546.92255,650.12524,551.0178C656.4964,552.7833,668.1464,554.9419,678.07477,556.239C683.6452,556.9686,695.6813,558.2506,698.90625,558.46246C698.91406,558.4632,698.92316,558.46,698.9329,558.4532C699.2847,558.2214,700.9162,553.59174,703.18475,546.5367C710.2665,524.352,713.41595,505.37027,712.33014,491.28848C711.4648,480.00723,708.05273,471.24112,702.2368,465.30984C699.41376,462.43787,695.74335,459.9891,692.2982,458.68015C689.8684,457.75717,685.6232,456.97787,683.063,456.9703C676.99536,456.95212,670.3505,459.03036,664.8578,462.65207 Z"/>
</g>
<g style="fill:rgb(0,0,0); fill-opacity:1.0; stroke-linejoin: miter">
<path d="M1081.7699,806.3769C1078.9786,805.8693,1076.2311,806.20746,1073.7848,807.206L1054.4655,787.7325C1055.0469,786.55634,1055.479,785.2846,1055.7251,783.92957C1055.9713,782.5753,1056.0148,781.2328,1055.8848,779.928L1080.1493,768.81104C1082.161,770.8716,1084.8062,772.3535,1087.8561,772.9082C1095.6702,774.32935,1103.1565,769.1455,1104.5773,761.3316C1105.9979,753.51764,1100.8159,746.03156,1093.0016,744.61066C1085.1877,743.18976,1077.7015,748.3727,1076.2806,756.18665C1076.0931,757.21875,1076.0238,758.2438,1076.0582,759.251L1051.1772,770.6509C1049.2642,768.9315,1046.8666,767.7025,1044.1501,767.2084C1036.3359,765.78766,1028.8496,770.971,1027.4286,778.78436C1026.0076,786.5981,1031.1904,794.085,1039.0046,795.5063C1041.7212,796.00006,1044.3973,795.6939,1046.7938,794.7576L1066.2169,814.33673C1065.6823,815.45966,1065.2821,816.67035,1065.049,817.95306C1063.6283,825.7661,1068.8107,833.25305,1076.6244,834.6743C1084.4385,836.0946,1091.9247,830.91156,1093.3456,823.0983C1094.7665,815.2836,1089.5844,807.79755,1081.7699,806.3769 Z"/>
</g>
<g style="fill:rgb(255,255,255); fill-opacity:0.99607843; stroke-linejoin: miter">
<path d="M1042.8401,532.9147L1041.9761,545.7562Q1035.834,584.56445,1006.0332,607.83234Q976.0259,631.0812,935.3619,626.6872Q896.5536,620.545,873.2859,590.7441Q865.83075,581.111,861.0044,569.7514L856.9479,558.0727Q853.605,546.0187,853.5673,532.91455Q854.5822,492.7003,881.28564,465.99677Q907.98914,439.2933,948.2035,438.27844Q988.41797,439.2931,1015.12134,465.9968Q1041.8252,492.70026,1042.8401,532.9147"/>
</g>
<g style="fill:rgb(255,255,255); fill-opacity:0.99607843; stroke-linejoin: miter">
<path d="M839.51825,616.21765L839.51825,616.21826L894.785,520.00323Q929.9024,556.0116,965.01984,592.01996L839.51825,616.21765"/>
</g>
<g style="fill:rgb(255,255,255); fill-opacity:0.99607843; stroke-linejoin: miter">
<path d="M1099.3801,648.3292L1084.9431,654.9423L1070.5065,661.55536L1099.3801,648.3292"/>
</g>
</g>
</svg>